{"asset":{"version":"2.0","generator":"babylon.js glTF exporter for Maya 2018 v20191016.5"},"scene":0,"scenes":[{"nodes":[0,1],"extensions":{}}],"nodes":[{"mesh":0,"translation":[0.0,0.0,0.0],"rotation":[0.0,0.0,0.0,1.0],"scale":[1.0,1.0,1.0],"name":"Kurtka:Mesh"},{"translation":[0.0,0.0,0.0],"rotation":[0.0,0.0,0.0,1.0],"scale":[1.0,1.0,1.0],"name":"Default light"}],"meshes":[{"primitives":[{"attributes":{"POSITION":1,"TANGENT":2,"NORMAL":3,"TEXCOORD_0":4},"indices":0,"mode":4,"material":0}],"name":"Kurtka:Mesh"}],"accessors":[{"bufferView":0,"componentType":5123,"count":10020,"type":"SCALAR","name":"accessorIndices"},{"bufferView":1,"componentType":5126,"count":2272,"max":[36.2335,171.898117,16.40899],"min":[-35.9346581,90.39109,-12.7487946],"type":"VEC3","name":"accessorPositions"},{"bufferView":2,"componentType":5126,"count":2272,"type":"VEC4","name":"accessorTangents"},{"bufferView":1,"byteOffset":27264,"componentType":5126,"count":2272,"type":"VEC3","name":"accessorNormals"},{"bufferView":3,"componentType":5126,"count":2272,"type":"VEC2","name":"accessorUVs"}],"bufferViews":[{"buffer":0,"byteLength":20040,"name":"bufferViewScalar"},{"buffer":0,"byteOffset":20040,"byteLength":54528,"byteStride":12,"name":"bufferViewFloatVec3"},{"buffer":0,"byteOffset":74568,"byteLength":36352,"byteStride":16,"name":"bufferViewFloatVec4"},{"buffer":0,"byteOffset":110920,"byteLength":18176,"byteStride":8,"name":"bufferViewFloatVec2"}],"buffers":[{"uri":"Kurtka.bin","byteLength":129096}],"materials":[{"pbrMetallicRoughness":{"baseColorFactor":[0.8,0.8,0.8,1.0],"baseColorTexture":{"index":1,"texCoord":0},"metallicFactor":1.0,"roughnessFactor":1.0,"metallicRoughnessTexture":{"index":2,"texCoord":0}},"normalTexture":{"index":0,"texCoord":0},"emissiveFactor":[0.0,0.0,0.0],"alphaMode":"OPAQUE","name":"Kurtka_Mat"}],"textures":[{"sampler":0,"source":0,"name":"Kurtka_Normal.png"},{"sampler":0,"source":1,"name":"Kurtka_BaseColor.png"},{"sampler":0,"source":2,"name":"file50.jpg"}],"images":[{"uri":"Kurtka_Normal.png"},{"uri":"Kurtka_BaseColor.png"},{"uri":"file50.jpg"}],"samplers":[{"magFilter":9729,"minFilter":9987,"wrapS":10497,"wrapT":10497}]}