{"asset":{"version":"2.0","generator":"babylon.js glTF exporter for Maya 2018 v20191016.5"},"scene":0,"scenes":[{"nodes":[0,1],"extensions":{}}],"nodes":[{"mesh":0,"translation":[0.0,0.0,0.0],"rotation":[0.0,0.0,0.0,1.0],"scale":[1.0,1.0,1.0],"name":"Pants_LP:Mesh"},{"translation":[0.0,0.0,0.0],"rotation":[0.0,0.0,0.0,1.0],"scale":[1.0,1.0,1.0],"name":"Default light"}],"meshes":[{"primitives":[{"attributes":{"POSITION":1,"TANGENT":2,"NORMAL":3,"TEXCOORD_0":4},"indices":0,"mode":4,"material":0}],"name":"Pants_LP:Mesh"}],"accessors":[{"bufferView":0,"componentType":5123,"count":17088,"type":"SCALAR","name":"accessorIndices"},{"bufferView":1,"componentType":5126,"count":3387,"max":[24.8714981,113.698715,12.4955082],"min":[-23.0758286,5.716734,-12.2494268],"type":"VEC3","name":"accessorPositions"},{"bufferView":2,"componentType":5126,"count":3387,"type":"VEC4","name":"accessorTangents"},{"bufferView":1,"byteOffset":40644,"componentType":5126,"count":3387,"type":"VEC3","name":"accessorNormals"},{"bufferView":3,"componentType":5126,"count":3387,"type":"VEC2","name":"accessorUVs"}],"bufferViews":[{"buffer":0,"byteLength":34176,"name":"bufferViewScalar"},{"buffer":0,"byteOffset":34176,"byteLength":81288,"byteStride":12,"name":"bufferViewFloatVec3"},{"buffer":0,"byteOffset":115464,"byteLength":54192,"byteStride":16,"name":"bufferViewFloatVec4"},{"buffer":0,"byteOffset":169656,"byteLength":27096,"byteStride":8,"name":"bufferViewFloatVec2"}],"buffers":[{"uri":"Pants.bin","byteLength":196752}],"materials":[{"pbrMetallicRoughness":{"baseColorFactor":[1.0,1.0,1.0,1.0],"baseColorTexture":{"index":1,"texCoord":0},"metallicFactor":1.0,"roughnessFactor":1.0,"metallicRoughnessTexture":{"index":2,"texCoord":0}},"normalTexture":{"index":0,"texCoord":0},"emissiveFactor":[0.0,0.0,0.0],"alphaMode":"OPAQUE","name":"aiStandardSurface2"}],"textures":[{"sampler":0,"source":0,"name":"Pants_Normal.png"},{"sampler":0,"source":1,"name":"Pants_BaseColor.png"},{"sampler":0,"source":2,"name":"file130.jpg"}],"images":[{"uri":"Pants_Normal.png"},{"uri":"Pants_BaseColor.png"},{"uri":"file130.jpg"}],"samplers":[{"magFilter":9729,"minFilter":9987,"wrapS":10497,"wrapT":10497}]}